<svg id="レイヤー_1" data-name="レイヤー 1" xmlns="http://www.w3.org/2000/svg" viewBox="0 0 250 80"><defs><style>.cls-1{fill:#2f9839}</style></defs><path d="M13.72 2.56v3.83H6.4q-.4.5-.81 1h8.75v2.1a12.07 12.07 0 01-.12 2.17 1.34 1.34 0 01-.62.87 3.34 3.34 0 01-1.68.32h-1.08l-.2-.94h1.28a1.55 1.55 0 001-.24 1.06 1.06 0 00.35-.74q.06-.5.06-1.67V8.12H9.1v.11a1.46 1.46 0 010 .34 5 5 0 002.88 1.3l-.35.72a5 5 0 01-2.87-1.42 5.37 5.37 0 01-2.9 1.37l-.24-.61a6.19 6.19 0 002.06-.76 1.15 1.15 0 00.54-.94v-.11H4.9v2.64h6.63v.77H4.9v.4h-1v-3a23.69 23.69 0 01-2 1.3l-.5-.7a13.82 13.82 0 003.83-3.14H3.14V2.56zM6.32.74h4.17V0h1v.74H15v.82h-3.52v.6h-1v-.6H6.32v.65h-1v-.64H1.84V.74h3.48V0h1zM4.19 4.17h8.48v-.9H4.19zm8.48.65H4.19v.85h8.48zm3.73 7.96l-.21-.91 1-.18V3.6a8.77 8.77 0 01-.89.7l-.47-.64a12 12 0 001.81-1.76A8.81 8.81 0 0018.88 0h1.35a7.49 7.49 0 002.07 2.13l-.6.72A9.47 9.47 0 0119.63.72a13 13 0 01-2.37 2.81h1.82V2.46h1v1.07h1.78v4.9h-3.64v3.05q1.64-.33 2.58-.57-.37-.78-.66-1.31l.92-.43q.36.59 1.5 3.07l-1 .41-.44-1q-1.75.55-4.72 1.13zm1.81-7.18h2.6V4.25h-2.6zm2.6.69h-2.6v1.4h2.6zm4.74 6.5V5.27H24v5.63h-1V4.49h2.53v-2H24a10.26 10.26 0 01-1 1.63l-.79-.49A11.09 11.09 0 0024-.11l1 .19q-.16.47-.61 1.54h5.46v.86h-3.21v2h2.61v5.28a.86.86 0 01-.34.71 1.26 1.26 0 01-.8.27h-1L27 9.8h.67q.55 0 .55-.5v-4h-1.58v7.52zm7.16-1.53H44v.86H32.71v.57h-1.06V.6h12.14v.86H32.71zM38.91 7a17.75 17.75 0 01-5 3.55l-.43-.79a18.48 18.48 0 004.66-3.37 36 36 0 00-3.3-2.4l.64-.71q1.45.91 3.38 2.37a18.31 18.31 0 002.52-3.52l1 .43a16.77 16.77 0 01-2.77 3.69q1.76 1.35 3 2.4l-.83.74Q41.13 8.7 38.91 7zm6.43-3.89v-.8h4.08v.8zm1.3 9.16v.55h-1V8.24h3.27v4zM45.8 5v-.75h3.1V5zm0 1.91v-.75h3.1v.79zm0-5.76V.38H49v.8zM48 8.94h-1.35v2.57H48zm3.44 3.94h-1.2l-.09-.88H51a.51.51 0 00.35-.12.37.37 0 00.14-.29v-1.06q-1.11.16-1.91.24l-.12-.77q.72-.06 2-.23V8.65h-2.11v-.74h2.15v-1L50.08 7l-.13-.64a16.94 16.94 0 003.26-.47l.31.68a9.67 9.67 0 01-1.07.21v1.13h1.93q-.08-.66-.14-2.06h1q0 1.07.14 2.06h3v.74h-2.9l.14.53a6.32 6.32 0 00.35 1 10.42 10.42 0 001.12-1.09l.67.5A10 10 0 0156.38 11a3.5 3.5 0 00.6.68.93.93 0 00.55.28c.15 0 .24-.09.29-.26a11.84 11.84 0 00.18-1.48l.78.1a16.1 16.1 0 01-.13 1.74 1.08 1.08 0 01-.35.74 1.15 1.15 0 01-.67.18 1.4 1.4 0 01-.55-.11 2.6 2.6 0 01-.68-.5 5.39 5.39 0 01-.74-.84 9.44 9.44 0 01-2.25 1.33l-.41-.61a11.67 11.67 0 002.24-1.42 8.41 8.41 0 01-.73-2.18h-2v1l1.47-.23v.71q-.39.11-1.48.28V12a.83.83 0 01-.32.66 1.05 1.05 0 01-.74.23zm-1.79-7.51v-.78h3.78v-.95h-3.1v-.73h3.1v-1h-3.55v-.74H52L51.46.09l.93-.27.61 1.35h2l.6-1.33 1 .26-.59 1.08h2.13v.74h-3.68v1h3.23v.74h-3.23v.95h4v.78zm7.28 2.24q-.33-.52-.9-1.33l.72-.28q.62.82.92 1.3zM73 5.68a17.27 17.27 0 01-3.43-2 17.31 17.31 0 01-3.1-2.93 14.49 14.49 0 01-3 2.88 17.93 17.93 0 01-3.57 2.16L59.37 5a17.54 17.54 0 003.42-2.12A11 11 0 0065.68 0h1.5a15.75 15.75 0 003 2.76 15.91 15.91 0 003.57 2zm-12.47 7.13l-.15-.95 2-.06a27.69 27.69 0 002.12-3.51h-4.25v-.88h12.52v.88h-7a40.65 40.65 0 01-2.18 3.46q4.44-.2 6.54-.45a21.81 21.81 0 00-1.64-1.83l.92-.47A22.78 22.78 0 0171 10.66q1 1.13 1.47 1.8l-1 .5q-.23-.35-.65-.89-1.36.18-4.85.42t-5.44.32zm2.19-7.56v-.87h7.65v.87zm11.65-2.14v-.8h4.08v.8zm1.3 9.16v.55h-1V8.24H78v4zM74.83 5v-.75h3.1V5zm0 1.91v-.75h3.1v.79zm0-5.76V.38H78v.8zM77 8.94h-1.32v2.57H77zm3.44 3.94h-1.2l-.06-.88H80a.51.51 0 00.35-.12.38.38 0 00.14-.29v-1.06q-1.11.16-1.91.24l-.09-.77q.72-.06 2-.23V8.65h-2.11v-.74h2.15v-1L79.11 7 79 6.38a16.94 16.94 0 003.26-.47l.31.68a9.67 9.67 0 01-1.07.21v1.11h1.9q-.08-.66-.14-2.06h1q0 1.07.14 2.06h3v.74h-2.9l.14.53a6.32 6.32 0 00.35 1 10.42 10.42 0 001.12-1.09l.67.5A10 10 0 0185.41 11a3.5 3.5 0 00.6.68.93.93 0 00.55.28q.22 0 .29-.26a11.84 11.84 0 00.15-1.48l.78.1a16.1 16.1 0 01-.13 1.74 1.08 1.08 0 01-.35.74 1.15 1.15 0 01-.67.18 1.4 1.4 0 01-.55-.11 2.6 2.6 0 01-.68-.5 5.39 5.39 0 01-.74-.84 9.44 9.44 0 01-2.25 1.33l-.41-.61a11.67 11.67 0 002.24-1.42 8.38 8.38 0 01-.73-2.18h-2v1l1.47-.23v.71q-.39.11-1.48.28V12a.83.83 0 01-.32.66 1.05 1.05 0 01-.71.23zm-1.76-7.51v-.78h3.78v-.95h-3.1v-.73h3.1v-1h-3.54v-.74H81L80.49.09l.93-.27.58 1.35h2.07l.6-1.33 1 .26-.59 1.08h2.13v.74h-3.72v1h3.23v.74h-3.23v.95h4v.78zM86 7.61q-.33-.52-.9-1.33l.68-.28q.62.82.92 1.3zm3.26 5.34l-.35-.83a17.61 17.61 0 002.24-.61 10.4 10.4 0 001.93-.81l.76.72a10.91 10.91 0 01-2.16.91 16.19 16.19 0 01-2.42.62zm.92-2.38V4.2h10.54v6.36zm.53-7.17V.5h9.58v2.9zm.54 2.6h8.38V5h-8.38zm0 1.81h8.38v-1h-8.38zm8.38.79h-8.38v1.1h8.38zm-.4-7.29h-7.49v1.28h7.49zm2.3 11.62a22.26 22.26 0 01-2.53-.64 10.39 10.39 0 01-2.1-.86l.73-.76a22.47 22.47 0 004.45 1.33z"/><path class="cls-1" d="M17.27 26.57q0 1.28-.1 3.08h5.61a7.29 7.29 0 015.59 2.28 8.22 8.22 0 012.13 5.84q0 9-2.09 14.5t-7.07 5.53q-3 0-8.3-3l1.86-4.9a20.11 20.11 0 003.41 1.49 11.09 11.09 0 002.36.64A1.82 1.82 0 0022 51.4a7.21 7.21 0 001.2-2.45 22.15 22.15 0 00.94-4.22 42.15 42.15 0 00.31-5.46 10.88 10.88 0 00-.26-2.9 2.28 2.28 0 00-.87-1.25 2.67 2.67 0 00-1.54-.42h-5.01Q14.9 48.89 6.11 58.42l-4.39-3.26a41.87 41.87 0 005.22-8 39.6 39.6 0 003.67-12.45H3.28v-5.06h8.06v-7.8h5.93zm25.21 16.89L36.67 45a64.13 64.13 0 00-2.84-8.36A44.61 44.61 0 0031 31.39a30.11 30.11 0 00-2.91-4l4.64-2.9a42.76 42.76 0 016.24 9.07 36 36 0 013.51 9.9zm8.91 2.96Q48.28 51 46 53.71l-3.12-4.43a122 122 0 008.46-11.95v-4.6h-7v-4.58h7v-6.62h5.73v11.38q6.16-5.29 12.76-5.29a12.17 12.17 0 019.2 3.67 13.16 13.16 0 013.51 9.5 18.1 18.1 0 01-1.78 7.77 14.26 14.26 0 01-6.16 6.28 24.58 24.58 0 01-11.32 2.72l-1.26-4.76a36.41 36.41 0 007.13-1.26 12.17 12.17 0 004.2-2.28A9.45 9.45 0 0076 45.78a11.56 11.56 0 00.88-4.53v-.47a9.8 9.8 0 00-1.82-6.06 5.9 5.9 0 00-5-2.42q-7 0-13 7.33V57.9h-5.67zm67.48 9.74a122.26 122.26 0 01-14.5 1q-10.75 0-14.82-2.15a6.82 6.82 0 01-4.07-6.34q0-5.29 5.61-9.54l4 3q-3.85 3.67-3.85 6a3.14 3.14 0 00.24 1.27 2.81 2.81 0 001.18 1.12 10.17 10.17 0 003.43.93 46.7 46.7 0 006.32.38h1.48A95.73 95.73 0 00118 50.75zm-2.61-25.72a16.27 16.27 0 00-3.1.88 31.27 31.27 0 00-3.48 1.61l-5.53 3-2.49-3.56q.77-.32 4.7-2.19-6 .06-18 .49l-.16-5q5.75-.2 21.91-.2h4.17zm3.67-3.12L117 28.43q-1.54-3.83-2.81-6.26l2.86-1.07q1.62 3.08 2.87 6.22zm5.59-.85l-2.88 1.07q-1.26-3.1-2.81-6.22l2.79-1q1.53 2.95 2.89 6.15zm33.79 8.61l-8.87 6.64q2.23.51 2.77 3.48l.3 4.54a2.71 2.71 0 00.48 1.58 2.24 2.24 0 00.87.63 3.71 3.71 0 001.08.22h9.21v5.14h-10.48a8.15 8.15 0 01-3.8-.78 4.3 4.3 0 01-2.08-2.22 18.62 18.62 0 01-.69-5.61q-.06-3-1.62-3a3 3 0 00-1.63.52q-.82.52-5.07 4.08l-9.68 8.1-3.73-3.81q6.84-5.29 13.06-10.57 1.76-1.5 5-3.89 3.69-2.69 5-3.79-2.9.06-7.59.06l-11.2-.06v-4.67h26.16zm-1.54-10.53l-1.07 4.74a191.21 191.21 0 00-21.93-1.38h-1.5v-4.74h3.12a189.91 189.91 0 0121.38 1.37zm23.93 6.88h-12.85v-4h12.85zm12.74 4.39v7.11q0 2.45-.15 4.27t-.29 2.92a4.12 4.12 0 01-.83 1.93 4.79 4.79 0 01-1.54 1.31 4 4 0 01-1.89.47h-2.75l-.45-4.23h1.88a1.05 1.05 0 001-.52 10.15 10.15 0 00.43-2.94q.15-2.42.15-6.41h-2.61a51.33 51.33 0 01-1 9.76 22.36 22.36 0 01-3.48 8.12l-2.07-1.72v.34h-7v1.5h-4.27V44h11.24v8.24a27.33 27.33 0 001.41-5.6 56.21 56.21 0 00.37-7.28V27.87h11.79V21h5.14v6.89H203q-1.38-2.29-3.16-4.9l3.36-2q.83 1 3.89 5.53l-2.17 1.36h2.21v4.22h-7.57s.1 1.38.31 4 .35 4.21.44 4.68a50 50 0 002.07-7.21l4.56 1.28q-.81 4.84-4.82 12.92.41 1.11.88 2.2t.56 1.23a.26.26 0 00.24.14q.41 0 .45-.67t.32-5.1l3.32.65q-.14 7.37-.34 8.66a3.29 3.29 0 01-1.07 2 3 3 0 01-2 .76 3.79 3.79 0 01-2.29-.79q-1.07-.79-2.88-4.31a52.09 52.09 0 01-4.46 5.46l-2.94-2.9a37.19 37.19 0 005.27-7.45 62.15 62.15 0 01-2.59-15.53h-7.21v3.73zm-13.65-10.14h-10.61v-3.52h10.61zm-.2 11.06h-10.41v-3.45h10.41zm0 5.45h-10.41V38.7h10.41zm-3.95 10.49v-5h-2.73v5zm70.96-12.87h-36.65v-5.38h36.65z"/><path class="cls-1" d="M2.68 76.16V63.72h1.18v6.45l6.38-6.45h1.33l-4.91 5 5.77 7.48H11l-5.19-6.8-2 2v4.8zm15.42-5.22l.7-.1a2.65 2.65 0 00.67-.19.55.55 0 00.32-.41 2.57 2.57 0 00.06-.53 1.77 1.77 0 00-.51-1.3 2.38 2.38 0 00-1.72-.51 4.76 4.76 0 00-1 .1 2.15 2.15 0 00-.79.33 1.82 1.82 0 00-.55.62 2.63 2.63 0 00-.29 1h-1.04a3.2 3.2 0 01.36-1.36 2.75 2.75 0 01.8-.92 3.33 3.33 0 011.14-.52 5.58 5.58 0 011.38-.15 5.33 5.33 0 011.27.15 3 3 0 011 .47 2.17 2.17 0 01.69.86 3.09 3.09 0 01.25 1.31v4.87q0 .6.22.77t.87-.08v.81l-.35.1a1.61 1.61 0 01-.46.07 2.07 2.07 0 01-.47-.05.8.8 0 01-.41-.16 1 1 0 01-.25-.31 1.28 1.28 0 01-.13-.4 2.86 2.86 0 010-.46 4.5 4.5 0 01-1.5 1.05 4.43 4.43 0 01-1.83.38 4.09 4.09 0 01-1.13-.16 2.73 2.73 0 01-1-.48 2.4 2.4 0 01-.66-.8 2.47 2.47 0 01-.24-1.13q0-2.28 3.13-2.7zm1.75.52a5.07 5.07 0 01-1.33.36q-.67.09-1.35.14a3.8 3.8 0 00-1.86.54 1.54 1.54 0 00-.67 1.36 1.48 1.48 0 00.16.72 1.52 1.52 0 00.43.5 1.82 1.82 0 00.62.29 2.75 2.75 0 00.72.1 4.72 4.72 0 001.21-.16 3.28 3.28 0 001-.48 2.43 2.43 0 00.73-.81 2.34 2.34 0 00.28-1.17zm11.31 3.32l2.35-7.57h1.05l-2.9 9h-1.1l-2-7.52-2 7.52h-1.22l-2.73-9h1L26 74.85l2-7.64h1.16zm9.02-3.84l.7-.1a2.65 2.65 0 00.67-.19.55.55 0 00.32-.41 2.57 2.57 0 00.06-.53 1.77 1.77 0 00-.51-1.3 2.38 2.38 0 00-1.72-.51 4.76 4.76 0 00-1 .1 2.15 2.15 0 00-.79.33 1.82 1.82 0 00-.55.62 2.63 2.63 0 00-.29 1H36a3.2 3.2 0 01.36-1.36 2.75 2.75 0 01.8-.92 3.33 3.33 0 011.14-.52 5.58 5.58 0 011.41-.15 5.33 5.33 0 011.27.15 3 3 0 011 .47 2.17 2.17 0 01.69.86 3.09 3.09 0 01.33 1.27v4.87q0 .6.22.77t.87-.08v.81l-.35.1a1.61 1.61 0 01-.46.07 2.07 2.07 0 01-.47-.05.8.8 0 01-.41-.16 1 1 0 01-.25-.31 1.28 1.28 0 01-.13-.4 2.86 2.86 0 010-.46A4.5 4.5 0 0140.44 76a4.43 4.43 0 01-1.83.38 4.09 4.09 0 01-1.13-.16 2.73 2.73 0 01-1-.48 2.4 2.4 0 01-.66-.8 2.47 2.47 0 01-.24-1.13q0-2.28 3.13-2.7zm1.75.52a5.07 5.07 0 01-1.33.36q-.67.09-1.35.14a3.8 3.8 0 00-1.86.54 1.54 1.54 0 00-.67 1.36 1.48 1.48 0 00.16.72 1.52 1.52 0 00.43.5 1.82 1.82 0 00.62.29 2.75 2.75 0 00.72.1 4.72 4.72 0 001.21-.16 3.28 3.28 0 001-.48 2.43 2.43 0 00.73-.81 2.34 2.34 0 00.28-1.17zm10.66-4.25h1v8.09a8 8 0 01-.15 1.7 3.72 3.72 0 01-.65 1.44 3.26 3.26 0 01-1.28 1 6 6 0 01-3.78.12 3.68 3.68 0 01-1.16-.63 2.73 2.73 0 01-.68-.84 2.11 2.11 0 01-.25-.86h1.11a2 2 0 00.38.82 1.9 1.9 0 00.61.5 2.62 2.62 0 00.79.25 5.7 5.7 0 00.9.07 3.42 3.42 0 001.69-.36 2.47 2.47 0 001-1 3.65 3.65 0 00.42-1.33 10.27 10.27 0 00.08-1.52A3.21 3.21 0 0151.21 76a4.13 4.13 0 01-1.82.42 3.81 3.81 0 01-1.77-.42 3.64 3.64 0 01-1.24-1 4.45 4.45 0 01-.73-1.51 6.63 6.63 0 01-.24-1.8 7.32 7.32 0 01.22-1.85 4.06 4.06 0 01.72-1.5 3.45 3.45 0 011.25-1 4.27 4.27 0 011.84-.34 3.39 3.39 0 01.88.12 4.2 4.2 0 01.87.35A3.39 3.39 0 0152 68a3 3 0 01.58.78zm0 4.51a5.52 5.52 0 00-.2-1.51 3.67 3.67 0 00-.58-1.21 2.74 2.74 0 00-1-.8 2.79 2.79 0 00-1.3-.29 3.07 3.07 0 00-1.21.23 2.76 2.76 0 00-1 .68 3.19 3.19 0 00-.65 1.1 4.4 4.4 0 00-.23 1.49 5.82 5.82 0 00.22 1.59 3.76 3.76 0 00.55 1.29 2.75 2.75 0 001 .87 2.88 2.88 0 001.4.32 2.63 2.63 0 001.27-.3 2.93 2.93 0 001-.81 3.73 3.73 0 00.6-1.19 4.93 4.93 0 00.13-1.46zm7.2 4.68a4.66 4.66 0 01-1.62-.31 3.62 3.62 0 01-1.31-.88 4.24 4.24 0 01-.86-1.47 5.88 5.88 0 01-.33-2.06 6.32 6.32 0 01.26-1.84 4.34 4.34 0 01.78-1.49 3.7 3.7 0 011.3-1 4.17 4.17 0 011.78-.35 4.21 4.21 0 011.83.37 3.74 3.74 0 011.3 1 4.14 4.14 0 01.77 1.49 6.6 6.6 0 01.25 1.85 6 6 0 01-.29 1.94 4.35 4.35 0 01-.84 1.49 3.69 3.69 0 01-1.31 1 4.19 4.19 0 01-1.71.26zm3-4.72a6.11 6.11 0 00-.17-1.49 3.53 3.53 0 00-.54-1.2 2.59 2.59 0 00-.93-.8 3 3 0 00-1.4-.29 2.84 2.84 0 00-1.39.32 2.72 2.72 0 00-.94.85 3.71 3.71 0 00-.54 1.21 5.71 5.71 0 00-.17 1.41 5.59 5.59 0 00.2 1.53 3.57 3.57 0 00.58 1.2 2.58 2.58 0 001 .78 3 3 0 001.31.28 2.83 2.83 0 001.39-.32 2.69 2.69 0 00.94-.86 3.84 3.84 0 00.54-1.21 5.6 5.6 0 00.16-1.41zm3.69.25a4.85 4.85 0 00.19 1.37 3.32 3.32 0 00.56 1.12 2.72 2.72 0 00.94.76 2.9 2.9 0 001.31.28 2.85 2.85 0 001.74-.54 2.58 2.58 0 001-1.52h1.16a5.59 5.59 0 01-.5 1.18 3.64 3.64 0 01-.78 1 3.36 3.36 0 01-1.11.63 4.49 4.49 0 01-1.49.22 4.34 4.34 0 01-1.86-.43 3.49 3.49 0 01-1.28-1 4.19 4.19 0 01-.74-1.49 6.73 6.73 0 01-.24-1.84 5.87 5.87 0 01.28-1.85 4.7 4.7 0 01.81-1.51 3.77 3.77 0 011.29-1 3.88 3.88 0 011.73-.31 3.57 3.57 0 012.9 1.27 5.59 5.59 0 011 3.69zm5.84-.86a4.09 4.09 0 00-.18-1.24 2.89 2.89 0 00-.54-1 2.56 2.56 0 00-.89-.67 2.87 2.87 0 00-1.23-.25 2.73 2.73 0 00-1.22.26 2.8 2.8 0 00-.9.69 3.47 3.47 0 00-.6 1 4.64 4.64 0 00-.29 1.21zm8.57 1.37a3.68 3.68 0 00.37 1.41 2.78 2.78 0 00.78.94 3.08 3.08 0 001.1.53 5.18 5.18 0 001.33.16 4.43 4.43 0 001.43-.21 2.71 2.71 0 001-.56 2.21 2.21 0 00.56-.82 2.69 2.69 0 00.18-1 2 2 0 00-.33-1.18 2.54 2.54 0 00-.86-.73 5.27 5.27 0 00-1.21-.46l-1.4-.34q-.72-.16-1.4-.39a4.4 4.4 0 01-1.21-.6 2.92 2.92 0 01-.86-1 3.11 3.11 0 01-.37-1.47 3 3 0 01.27-1.24 3.1 3.1 0 01.79-1.07 3.9 3.9 0 011.32-.74 5.57 5.57 0 011.83-.28 5.26 5.26 0 011.84.29 3.66 3.66 0 011.3.8 3.31 3.31 0 01.78 1.18 4 4 0 01.26 1.43h-1.07a2.79 2.79 0 00-.25-1.23 2.29 2.29 0 00-.68-.85 2.91 2.91 0 00-1-.48 4.18 4.18 0 00-1.14-.16 4 4 0 00-1.51.25 2.64 2.64 0 00-1 .65 2.19 2.19 0 00-.5.88 2.11 2.11 0 00-.05 1 1.68 1.68 0 00.48 1 3.05 3.05 0 00.93.6 7.05 7.05 0 001.22.38l1.36.31a13.8 13.8 0 011.34.39 4.11 4.11 0 011.15.6 2.78 2.78 0 01.8 1 3.29 3.29 0 01.3 1.49 3.23 3.23 0 01-1.19 2.68 5.25 5.25 0 01-3.35 1 6.2 6.2 0 01-1.8-.25 4 4 0 01-1.43-.87 3.5 3.5 0 01-.94-1.26 4.3 4.3 0 01-.34-1.77zm10.56-.51a4.85 4.85 0 00.19 1.37 3.32 3.32 0 00.56 1.12 2.72 2.72 0 00.94.76 2.9 2.9 0 001.31.28 2.85 2.85 0 001.74-.54 2.58 2.58 0 001-1.52h1.16a5.59 5.59 0 01-.5 1.18 3.64 3.64 0 01-.78 1 3.36 3.36 0 01-1.11.63 4.49 4.49 0 01-1.49.22 4.34 4.34 0 01-1.86-.43 3.49 3.49 0 01-1.28-1 4.19 4.19 0 01-.74-1.49 6.73 6.73 0 01-.24-1.84 5.87 5.87 0 01.28-1.85 4.7 4.7 0 01.81-1.51 3.77 3.77 0 011.29-1 3.88 3.88 0 011.73-.31 3.57 3.57 0 012.9 1.27 5.59 5.59 0 011 3.69zm5.84-.86a4.09 4.09 0 00-.18-1.24 2.89 2.89 0 00-.54-1 2.56 2.56 0 00-.89-.67 2.87 2.87 0 00-1.23-.25 2.73 2.73 0 00-1.22.26 2.8 2.8 0 00-.9.69 3.47 3.47 0 00-.6 1 4.64 4.64 0 00-.29 1.21zm3.23-5.81v-1.54h1.14v1.54zm.05 10.9v-9h1v9zm3.79-10.9v-1.54h1.14v1.54zm.05 10.9v-9h1v9zM114.43 70a3 3 0 00-1-1.56 2.58 2.58 0 00-1.71-.56 2.69 2.69 0 00-1.36.33 2.76 2.76 0 00-.93.87 3.93 3.93 0 00-.54 1.23 5.57 5.57 0 00-.17 1.37 5.79 5.79 0 00.16 1.38 3.68 3.68 0 00.53 1.21 2.71 2.71 0 00.93.86 2.79 2.79 0 001.38.32 2.65 2.65 0 001.86-.64 3 3 0 00.89-1.76h1.11a5.22 5.22 0 01-.44 1.36 3.59 3.59 0 01-.78 1.05 3.35 3.35 0 01-1.13.68 4.85 4.85 0 01-3.35-.12 3.49 3.49 0 01-1.28-1 4.17 4.17 0 01-.74-1.5 6.8 6.8 0 01-.24-1.85 5.94 5.94 0 01.27-1.79 4.65 4.65 0 01.79-1.51 3.8 3.8 0 011.29-1 3.87 3.87 0 011.77-.39 4 4 0 012.51.74 3.45 3.45 0 011.2 2.32zm3.27 6.16V63.72h1v4.73a6.62 6.62 0 011.3-1.07 3 3 0 011.6-.41 4.09 4.09 0 011.54.28 2.63 2.63 0 011.19 1 2.23 2.23 0 01.39 1 9 9 0 01.06 1.06v5.86h-1v-5.85a2.67 2.67 0 00-.54-1.81 2.28 2.28 0 00-1.78-.6 2.52 2.52 0 00-.88.15 2.77 2.77 0 00-.72.39 2.6 2.6 0 00-.54.55 2.56 2.56 0 00-.35.66 3.28 3.28 0 00-.19.83v5.68zm9.71-10.9v-1.54h1.14v1.54zm.05 10.9v-9h1v9zm12.05.24a4.66 4.66 0 01-1.62-.31 3.62 3.62 0 01-1.31-.88 4.23 4.23 0 01-.89-1.47 5.88 5.88 0 01-.33-2.06 6.32 6.32 0 01.26-1.84 4.34 4.34 0 01.78-1.49 3.7 3.7 0 011.3-1 4.66 4.66 0 013.65 0 3.74 3.74 0 011.3 1 4.14 4.14 0 01.77 1.49 6.63 6.63 0 01.25 1.85 6 6 0 01-.29 1.94 4.36 4.36 0 01-.84 1.49 3.69 3.69 0 01-1.31 1 4.19 4.19 0 01-1.72.28zm3-4.72a6.11 6.11 0 00-.17-1.49 3.52 3.52 0 00-.54-1.2 2.58 2.58 0 00-.93-.8 3 3 0 00-1.4-.29 2.83 2.83 0 00-1.39.32 2.72 2.72 0 00-.94.85 3.72 3.72 0 00-.54 1.21 5.71 5.71 0 00-.17 1.41 5.56 5.56 0 00.2 1.53 3.58 3.58 0 00.58 1.2 2.58 2.58 0 001 .78 3 3 0 001.31.28 2.84 2.84 0 001.39-.32 2.69 2.69 0 00.94-.86 3.83 3.83 0 00.54-1.21 5.6 5.6 0 00.16-1.41zm2.15-3.61v-.86H146v-1.42a2.93 2.93 0 01.43-1.69 1.66 1.66 0 011.47-.62h.45l.41.05v1a2.6 2.6 0 00-.62-.09 1.13 1.13 0 00-.62.15.86.86 0 00-.33.39 1.73 1.73 0 00-.13.54v1.72h1.73v.86H147v8.09h-1v-8.12zm4.8 0v-.86h1.33v-1.42a2.93 2.93 0 01.43-1.69 1.66 1.66 0 011.47-.62h.45l.41.05v1a2.6 2.6 0 00-.62-.09 1.13 1.13 0 00-.62.15.86.86 0 00-.33.39 1.73 1.73 0 00-.13.54v1.72h1.73v.86h-1.73v8.09h-1v-8.12zm5.81-2.81v-1.54h1.14v1.54zm.05 10.9v-9h1v9zM165.34 70a3 3 0 00-1-1.56 2.58 2.58 0 00-1.71-.56 2.69 2.69 0 00-1.36.33 2.76 2.76 0 00-.93.87 3.93 3.93 0 00-.54 1.23 5.57 5.57 0 00-.17 1.37 5.79 5.79 0 00.16 1.38 3.68 3.68 0 00.53 1.21 2.71 2.71 0 00.93.86 2.79 2.79 0 001.38.32 2.65 2.65 0 001.86-.64 3 3 0 00.89-1.76h1.11a5.22 5.22 0 01-.44 1.36 3.59 3.59 0 01-.78 1.05 3.35 3.35 0 01-1.13.68 4.85 4.85 0 01-3.35-.12 3.49 3.49 0 01-1.28-1 4.17 4.17 0 01-.74-1.5 6.8 6.8 0 01-.24-1.85 5.94 5.94 0 01.27-1.79 4.65 4.65 0 01.79-1.51 3.8 3.8 0 011.29-1 3.87 3.87 0 011.77-.39 4 4 0 012.51.74A3.45 3.45 0 01166.4 70zm3.37-4.74v-1.54h1.14v1.54zm.05 10.9v-9h1v9zm7.8-5.22l.7-.1a2.65 2.65 0 00.66-.19.55.55 0 00.32-.41 2.54 2.54 0 00.06-.53 1.77 1.77 0 00-.51-1.3 2.38 2.38 0 00-1.72-.51 4.76 4.76 0 00-1 .1 2.15 2.15 0 00-.79.33 1.81 1.81 0 00-.55.62 2.63 2.63 0 00-.28 1h-1.05a3.19 3.19 0 01.36-1.36 2.75 2.75 0 01.8-.92 3.33 3.33 0 011.14-.52 5.58 5.58 0 011.37-.16 5.33 5.33 0 011.27.15 3 3 0 011 .47 2.16 2.16 0 01.69.86 3.08 3.08 0 01.25 1.31v4.87q0 .6.22.77t.87-.08v.81l-.35.1a1.62 1.62 0 01-.46.07 2.08 2.08 0 01-.47-.05.8.8 0 01-.41-.16 1 1 0 01-.25-.31 1.28 1.28 0 01-.13-.4 2.9 2.9 0 010-.46 4.5 4.5 0 01-1.5 1.11 4.43 4.43 0 01-1.83.38 4.08 4.08 0 01-1.13-.16 2.73 2.73 0 01-1-.48 2.4 2.4 0 01-.66-.8 2.47 2.47 0 01-.24-1.13q0-2.28 3.13-2.7zm1.75.52a5.08 5.08 0 01-1.33.36q-.67.09-1.35.14a3.8 3.8 0 00-1.86.54 1.53 1.53 0 00-.67 1.36 1.48 1.48 0 00.16.72 1.51 1.51 0 00.43.5 1.82 1.82 0 00.62.29 2.75 2.75 0 00.72.1 4.72 4.72 0 001.21-.16 3.27 3.27 0 001-.48A2.43 2.43 0 00178 74a2.34 2.34 0 00.28-1.17zm3.9 4.7V63.72h1v12.44zm16.05-1.38l2.35-7.57h1.05l-2.9 9h-1.11l-2-7.52-2 7.52h-1.24l-2.73-9h1l2.32 7.64 2.07-7.64h1.16zm5.55-2.85a4.85 4.85 0 00.19 1.37 3.32 3.32 0 00.56 1.12 2.72 2.72 0 00.94.76 2.9 2.9 0 001.31.28 2.85 2.85 0 001.74-.54 2.58 2.58 0 001-1.52h1.16a5.59 5.59 0 01-.5 1.18 3.64 3.64 0 01-.78 1 3.36 3.36 0 01-1.11.63 4.49 4.49 0 01-1.49.22A4.34 4.34 0 01205 76a3.49 3.49 0 01-1.28-1 4.19 4.19 0 01-.74-1.49 6.73 6.73 0 01-.24-1.84 5.87 5.87 0 01.28-1.85 4.7 4.7 0 01.81-1.51 3.77 3.77 0 011.29-1 3.88 3.88 0 011.73-.37 3.57 3.57 0 012.9 1.27 5.59 5.59 0 011 3.69zm5.84-.86a4.09 4.09 0 00-.18-1.24 2.89 2.89 0 00-.54-1 2.56 2.56 0 00-.89-.67 2.87 2.87 0 00-1.23-.25 2.73 2.73 0 00-1.22.26 2.8 2.8 0 00-.9.69 3.47 3.47 0 00-.6 1 4.64 4.64 0 00-.29 1.21zm4.28 5.09h-1V63.72h1v4.92a3.21 3.21 0 011.37-1.25 4.13 4.13 0 011.82-.42 3.81 3.81 0 011.77.39 3.64 3.64 0 011.24 1 4.48 4.48 0 01.73 1.51 6.66 6.66 0 01.24 1.8 7.32 7.32 0 01-.22 1.85 4.06 4.06 0 01-.72 1.5 3.45 3.45 0 01-1.25 1 4.27 4.27 0 01-1.85.36 3.4 3.4 0 01-.88-.12 4.14 4.14 0 01-.87-.35 3.5 3.5 0 01-.78-.56 2.79 2.79 0 01-.58-.79zm0-4.51a5.49 5.49 0 00.2 1.51 3.68 3.68 0 00.58 1.21 2.73 2.73 0 001 .8 2.79 2.79 0 001.3.29 3.07 3.07 0 001.21-.23 2.77 2.77 0 001-.68 3.17 3.17 0 00.65-1.1A4.41 4.41 0 00220 72a5.86 5.86 0 00-.14-1.58 3.78 3.78 0 00-.55-1.29 2.74 2.74 0 00-1-.87 2.9 2.9 0 00-1.31-.36 2.64 2.64 0 00-1.27.3 2.93 2.93 0 00-1 .81 3.73 3.73 0 00-.6 1.19 4.93 4.93 0 00-.2 1.45zm10.01 1.71a2.63 2.63 0 00.87 1.63 3 3 0 001.81.48 3.11 3.11 0 001-.14 2 2 0 00.68-.37 1.62 1.62 0 00.41-.53 1.44 1.44 0 00.14-.62 1.15 1.15 0 00-.42-1 3.19 3.19 0 00-1.06-.5A13.51 13.51 0 00226 72a6.77 6.77 0 01-1.38-.39 2.77 2.77 0 01-1.06-.74 2 2 0 01-.42-1.36 2.33 2.33 0 01.82-1.84 3.42 3.42 0 012.32-.72 4 4 0 012.36.65 3 3 0 011.1 2.17h-1.05a1.94 1.94 0 00-.79-1.46 2.93 2.93 0 00-1.63-.42 2.33 2.33 0 00-1.5.42 1.37 1.37 0 00-.52 1.12 1.09 1.09 0 00.42.92 3.44 3.44 0 001.06.52q.64.2 1.38.35a6.83 6.83 0 011.38.44 3 3 0 011.06.77 2 2 0 01.42 1.35 2.28 2.28 0 01-.28 1.13 2.41 2.41 0 01-.76.82 3.54 3.54 0 01-1.15.49 6.1 6.1 0 01-1.46.16 4 4 0 01-1.41-.23 3.06 3.06 0 01-1-.65 3 3 0 01-.67-1 3.4 3.4 0 01-.28-1.19zm8.14-8.1v-1.54h1.14v1.54zm.05 10.9v-9h1v9zm6.87.03l-.5.12a2.56 2.56 0 01-.69.09 1.65 1.65 0 01-1.18-.39 1.89 1.89 0 01-.41-1.39v-6.55h-1.26v-.86h1.26v-2.49h1v2.49h1.68v.86h-1.68v6.7a1 1 0 00.1.4.5.5 0 00.27.22 1.49 1.49 0 00.51.07 2.68 2.68 0 00.42 0l.42-.09zm2.25-4.26a4.85 4.85 0 00.19 1.37 3.32 3.32 0 00.56 1.12 2.72 2.72 0 00.94.76 2.9 2.9 0 001.31.28 2.85 2.85 0 001.74-.54 2.58 2.58 0 001-1.52h1.16a5.59 5.59 0 01-.5 1.18 3.64 3.64 0 01-.78 1 3.36 3.36 0 01-1.11.63 4.49 4.49 0 01-1.49.22 4.34 4.34 0 01-1.85-.36 3.49 3.49 0 01-1.28-1 4.19 4.19 0 01-.74-1.49 6.73 6.73 0 01-.24-1.84 5.87 5.87 0 01.28-1.85 4.7 4.7 0 01.81-1.51 3.77 3.77 0 011.29-1 3.88 3.88 0 011.73-.37 3.57 3.57 0 012.9 1.27 5.59 5.59 0 011 3.69zm5.84-.86a4.09 4.09 0 00-.18-1.24 2.89 2.89 0 00-.54-1 2.56 2.56 0 00-.89-.67 2.87 2.87 0 00-1.23-.25 2.73 2.73 0 00-1.22.26 2.8 2.8 0 00-.9.69 3.47 3.47 0 00-.6 1 4.64 4.64 0 00-.29 1.21z" opacity=".7"/></svg>